<svg width="42" height="52" viewBox="0 0 42 52" fill="none" xmlns="http://www.w3.org/2000/svg">
<path d="M20.8 23.3999C22.9539 23.3999 24.6999 21.6538 24.6999 19.4999C24.6999 17.346 22.9539 15.5999 20.8 15.5999C18.646 15.5999 16.9 17.346 16.9 19.4999C16.9 21.6538 18.646 23.3999 20.8 23.3999Z" fill="#E73933"/>
<path d="M20.7999 2.6038e-08C15.3193 -0.000274013 10.06 2.16257 6.16521 6.01844C2.27039 9.87431 0.0548063 15.1116 0 20.5919C0 34.8399 18.3299 50.6998 19.1099 51.3758C19.5809 51.7786 20.1802 52 20.7999 52C21.4196 52 22.019 51.7786 22.4899 51.3758C23.3999 50.6998 41.5999 34.8399 41.5999 20.5919C41.5451 15.1116 39.3295 9.87431 35.4347 6.01844C31.5398 2.16257 26.2806 -0.000274013 20.7999 2.6038e-08ZM20.7999 28.5999C19.0001 28.5999 17.2407 28.0662 15.7443 27.0663C14.2478 26.0664 13.0814 24.6451 12.3927 22.9823C11.7039 21.3195 11.5237 19.4898 11.8748 17.7246C12.2259 15.9594 13.0926 14.3379 14.3653 13.0653C15.6379 11.7926 17.2594 10.9259 19.0246 10.5748C20.7898 10.2237 22.6195 10.4039 24.2823 11.0927C25.9451 11.7814 27.3664 12.9478 28.3663 14.4443C29.3662 15.9407 29.8999 17.7001 29.8999 19.4999C29.8999 21.9134 28.9412 24.228 27.2346 25.9346C25.528 27.6412 23.2134 28.5999 20.7999 28.5999V28.5999Z" fill="#E73933"/>
</svg>
