<svg width="24" height="24" viewBox="0 0 24 24" fill="none" xmlns="http://www.w3.org/2000/svg">
<path d="M5.70016 9.5589C5.7161 9.3603 5.80627 9.17498 5.95269 9.03986C6.09912 8.90474 6.29107 8.82973 6.49032 8.82977H17.5097C17.709 8.82973 17.9009 8.90474 18.0473 9.03986C18.1938 9.17498 18.2839 9.3603 18.2999 9.5589L18.9949 18.2134C19.0124 18.4315 18.9846 18.6508 18.9132 18.8577C18.8417 19.0645 18.7283 19.2542 18.5799 19.4151C18.4315 19.5759 18.2514 19.7042 18.051 19.792C17.8506 19.8798 17.6342 19.9252 17.4154 19.9252H6.58463C6.36583 19.9252 6.14941 19.8798 5.949 19.792C5.74859 19.7042 5.56853 19.5759 5.42016 19.4151C5.27178 19.2542 5.15831 19.0645 5.08688 18.8577C5.01545 18.6508 4.98761 18.4315 5.00511 18.2134L5.69937 9.5589H5.70016Z" stroke="black" stroke-width="1.35" stroke-linecap="round" stroke-linejoin="round"/>
<path d="M15.1701 11.2074V7.24475C15.1701 6.40398 14.8361 5.59764 14.2416 5.00313C13.6471 4.40861 12.8408 4.07462 12 4.07462C11.1592 4.07462 10.3529 4.40861 9.75836 5.00313C9.16384 5.59764 8.82985 6.40398 8.82985 7.24475V11.2074" stroke="black" stroke-width="1.35" stroke-linecap="round" stroke-linejoin="round"/>
</svg>
