<svg width="16" height="14" viewBox="0 0 16 14" fill="none" xmlns="http://www.w3.org/2000/svg">
<path d="M16 1C16 0.734784 15.8946 0.48043 15.7071 0.292893C15.5196 0.105357 15.2652 0 15 0H1C0.734783 0 0.480429 0.105357 0.292892 0.292893C0.105356 0.48043 0 0.734784 0 1C0 1.26522 0.105356 1.51957 0.292892 1.70711C0.480429 1.89464 0.734783 2 1 2H15C15.2652 2 15.5196 1.89464 15.7071 1.70711C15.8946 1.51957 16 1.26522 16 1Z" fill="black"/>
<path d="M16 13C16 12.7348 15.8946 12.4804 15.7071 12.2929C15.5196 12.1054 15.2652 12 15 12H1C0.734783 12 0.480429 12.1054 0.292892 12.2929C0.105356 12.4804 0 12.7348 0 13C0 13.2652 0.105356 13.5196 0.292892 13.7071C0.480429 13.8946 0.734783 14 1 14H15C15.2652 14 15.5196 13.8946 15.7071 13.7071C15.8946 13.5196 16 13.2652 16 13Z" fill="black"/>
<path d="M9 6C9.26522 6 9.51957 6.10536 9.70711 6.29289C9.89464 6.48043 10 6.73478 10 7C10 7.26522 9.89464 7.51957 9.70711 7.70711C9.51957 7.89464 9.26522 8 9 8H1C0.734783 8 0.480429 7.89464 0.292892 7.70711C0.105356 7.51957 0 7.26522 0 7C0 6.73478 0.105356 6.48043 0.292892 6.29289C0.480429 6.10536 0.734783 6 1 6H9Z" fill="black"/>
</svg>
